<mxfile host="app.diagrams.net" agent="Mozilla/5.0 (Macintosh; Intel Mac OS X 10.15; rv:141.0) Gecko/20100101 Firefox/141.0" version="27.1.4">
  <diagram name="Page-1" id="sFoUcNze-BzdGA4uHaWY">
    <mxGraphModel dx="1306" dy="687" grid="1" gridSize="10" guides="1" tooltips="1" connect="1" arrows="1" fold="1" page="1" pageScale="1" pageWidth="3300" pageHeight="4681" math="0" shadow="0">
      <root>
        <mxCell id="0" />
        <mxCell id="1" parent="0" />
        <mxCell id="q2PjjPB55p4gRlyGQz1B-48" value="" style="rounded=0;whiteSpace=wrap;html=1;" vertex="1" parent="1">
          <mxGeometry x="320" y="120" width="1200" height="760" as="geometry" />
        </mxCell>
        <mxCell id="q2PjjPB55p4gRlyGQz1B-1" value="" style="rounded=0;whiteSpace=wrap;html=1;" vertex="1" parent="1">
          <mxGeometry x="360" y="200" width="380" height="290" as="geometry" />
        </mxCell>
        <mxCell id="q2PjjPB55p4gRlyGQz1B-5" value="" style="endArrow=none;html=1;rounded=0;entryX=1;entryY=0.279;entryDx=0;entryDy=0;entryPerimeter=0;exitX=0;exitY=0.897;exitDx=0;exitDy=0;exitPerimeter=0;" edge="1" parent="1" target="q2PjjPB55p4gRlyGQz1B-1">
          <mxGeometry width="50" height="50" relative="1" as="geometry">
            <mxPoint x="360" y="281.80000000000007" as="sourcePoint" />
            <mxPoint x="958.8000000000002" y="279.9999999999999" as="targetPoint" />
          </mxGeometry>
        </mxCell>
        <mxCell id="q2PjjPB55p4gRlyGQz1B-8" value="Homepage" style="text;html=1;align=center;verticalAlign=middle;whiteSpace=wrap;rounded=0;fontSize=24;" vertex="1" parent="1">
          <mxGeometry x="520" y="230" width="60" height="30" as="geometry" />
        </mxCell>
        <mxCell id="q2PjjPB55p4gRlyGQz1B-18" value="&lt;font style=&quot;font-size: 18px;&quot;&gt;Link to more special offers, country-specific pages, shopping cart&lt;/font&gt;" style="text;html=1;align=left;verticalAlign=middle;whiteSpace=wrap;rounded=0;fontSize=24;" vertex="1" parent="1">
          <mxGeometry x="385" y="370" width="330" height="30" as="geometry" />
        </mxCell>
        <mxCell id="q2PjjPB55p4gRlyGQz1B-19" value="Search menu" style="text;html=1;align=left;verticalAlign=middle;whiteSpace=wrap;rounded=0;fontSize=18;" vertex="1" parent="1">
          <mxGeometry x="385" y="430" width="330" height="30" as="geometry" />
        </mxCell>
        <mxCell id="q2PjjPB55p4gRlyGQz1B-20" value="Show specials on front page" style="text;html=1;align=left;verticalAlign=middle;whiteSpace=wrap;rounded=0;fontSize=18;" vertex="1" parent="1">
          <mxGeometry x="385" y="310" width="330" height="30" as="geometry" />
        </mxCell>
        <mxCell id="q2PjjPB55p4gRlyGQz1B-21" value="" style="rounded=0;whiteSpace=wrap;html=1;" vertex="1" parent="1">
          <mxGeometry x="360" y="520" width="320" height="160" as="geometry" />
        </mxCell>
        <mxCell id="q2PjjPB55p4gRlyGQz1B-23" value="Search results" style="text;html=1;align=center;verticalAlign=middle;whiteSpace=wrap;rounded=0;fontSize=24;" vertex="1" parent="1">
          <mxGeometry x="490" y="585" width="60" height="30" as="geometry" />
        </mxCell>
        <mxCell id="q2PjjPB55p4gRlyGQz1B-28" value="" style="rounded=0;whiteSpace=wrap;html=1;" vertex="1" parent="1">
          <mxGeometry x="800" y="160" width="320" height="160" as="geometry" />
        </mxCell>
        <mxCell id="q2PjjPB55p4gRlyGQz1B-29" value="Country info" style="text;html=1;align=center;verticalAlign=middle;whiteSpace=wrap;rounded=0;fontSize=24;" vertex="1" parent="1">
          <mxGeometry x="920" y="225" width="60" height="30" as="geometry" />
        </mxCell>
        <mxCell id="q2PjjPB55p4gRlyGQz1B-30" value="" style="rounded=0;whiteSpace=wrap;html=1;" vertex="1" parent="1">
          <mxGeometry x="1160" y="160" width="320" height="160" as="geometry" />
        </mxCell>
        <mxCell id="q2PjjPB55p4gRlyGQz1B-31" value="Special offers" style="text;html=1;align=center;verticalAlign=middle;whiteSpace=wrap;rounded=0;fontSize=24;" vertex="1" parent="1">
          <mxGeometry x="1300" y="225" width="60" height="30" as="geometry" />
        </mxCell>
        <mxCell id="q2PjjPB55p4gRlyGQz1B-32" value="" style="endArrow=none;html=1;rounded=0;exitX=1.008;exitY=0.548;exitDx=0;exitDy=0;exitPerimeter=0;strokeWidth=2;" edge="1" parent="1" source="q2PjjPB55p4gRlyGQz1B-1">
          <mxGeometry width="50" height="50" relative="1" as="geometry">
            <mxPoint x="830" y="440" as="sourcePoint" />
            <mxPoint x="1320" y="359" as="targetPoint" />
          </mxGeometry>
        </mxCell>
        <mxCell id="q2PjjPB55p4gRlyGQz1B-37" value="" style="endArrow=none;html=1;rounded=0;exitX=1.008;exitY=0.548;exitDx=0;exitDy=0;exitPerimeter=0;strokeWidth=2;" edge="1" parent="1">
          <mxGeometry width="50" height="50" relative="1" as="geometry">
            <mxPoint x="680" y="599.5" as="sourcePoint" />
            <mxPoint x="1320" y="600" as="targetPoint" />
          </mxGeometry>
        </mxCell>
        <mxCell id="q2PjjPB55p4gRlyGQz1B-40" value="" style="rounded=0;whiteSpace=wrap;html=1;" vertex="1" parent="1">
          <mxGeometry x="1160" y="680" width="320" height="160" as="geometry" />
        </mxCell>
        <mxCell id="q2PjjPB55p4gRlyGQz1B-41" value="Holiday purchase flow" style="text;html=1;align=center;verticalAlign=middle;whiteSpace=wrap;rounded=0;fontSize=24;" vertex="1" parent="1">
          <mxGeometry x="1240" y="745" width="180" height="30" as="geometry" />
        </mxCell>
        <mxCell id="q2PjjPB55p4gRlyGQz1B-42" value="" style="endArrow=block;html=1;rounded=0;exitX=0.75;exitY=1;exitDx=0;exitDy=0;entryX=0.75;entryY=0;entryDx=0;entryDy=0;endFill=1;strokeWidth=2;" edge="1" parent="1" source="q2PjjPB55p4gRlyGQz1B-30" target="q2PjjPB55p4gRlyGQz1B-40">
          <mxGeometry width="50" height="50" relative="1" as="geometry">
            <mxPoint x="920" y="580" as="sourcePoint" />
            <mxPoint x="970" y="530" as="targetPoint" />
          </mxGeometry>
        </mxCell>
        <mxCell id="q2PjjPB55p4gRlyGQz1B-43" value="" style="endArrow=classic;html=1;rounded=0;entryX=0.5;entryY=1;entryDx=0;entryDy=0;strokeWidth=2;" edge="1" parent="1" target="q2PjjPB55p4gRlyGQz1B-28">
          <mxGeometry width="50" height="50" relative="1" as="geometry">
            <mxPoint x="960" y="600" as="sourcePoint" />
            <mxPoint x="970" y="530" as="targetPoint" />
          </mxGeometry>
        </mxCell>
        <mxCell id="q2PjjPB55p4gRlyGQz1B-44" value="" style="endArrow=classic;html=1;rounded=0;entryX=0.5;entryY=1;entryDx=0;entryDy=0;strokeWidth=2;" edge="1" parent="1">
          <mxGeometry width="50" height="50" relative="1" as="geometry">
            <mxPoint x="1319.5" y="600" as="sourcePoint" />
            <mxPoint x="1319.5" y="320" as="targetPoint" />
          </mxGeometry>
        </mxCell>
        <mxCell id="q2PjjPB55p4gRlyGQz1B-45" value="" style="endArrow=classic;html=1;rounded=0;entryX=0;entryY=0.5;entryDx=0;entryDy=0;strokeWidth=2;" edge="1" parent="1" target="q2PjjPB55p4gRlyGQz1B-40">
          <mxGeometry width="50" height="50" relative="1" as="geometry">
            <mxPoint x="520" y="760" as="sourcePoint" />
            <mxPoint x="970" y="530" as="targetPoint" />
          </mxGeometry>
        </mxCell>
        <mxCell id="q2PjjPB55p4gRlyGQz1B-46" value="" style="endArrow=none;html=1;rounded=0;entryX=0.5;entryY=1;entryDx=0;entryDy=0;strokeWidth=2;" edge="1" parent="1" target="q2PjjPB55p4gRlyGQz1B-21">
          <mxGeometry width="50" height="50" relative="1" as="geometry">
            <mxPoint x="520" y="760" as="sourcePoint" />
            <mxPoint x="970" y="530" as="targetPoint" />
          </mxGeometry>
        </mxCell>
        <mxCell id="q2PjjPB55p4gRlyGQz1B-47" value="Shopping cart, enter address, pay, etc." style="text;html=1;align=center;verticalAlign=middle;whiteSpace=wrap;rounded=0;" vertex="1" parent="1">
          <mxGeometry x="1220" y="790" width="220" height="30" as="geometry" />
        </mxCell>
        <mxCell id="q2PjjPB55p4gRlyGQz1B-49" value="" style="endArrow=classic;html=1;rounded=0;strokeWidth=2;" edge="1" parent="1">
          <mxGeometry width="50" height="50" relative="1" as="geometry">
            <mxPoint x="520" y="490" as="sourcePoint" />
            <mxPoint x="520" y="520" as="targetPoint" />
          </mxGeometry>
        </mxCell>
      </root>
    </mxGraphModel>
  </diagram>
</mxfile>
